<?xml version="1.0" encoding="UTF-8" standalone="no"?>
<!DOCTYPE svg PUBLIC "-//W3C//DTD SVG 1.1//EN" "http://www.w3.org/Graphics/SVG/1.1/DTD/svg11.dtd">
<svg xmlns="http://www.w3.org/2000/svg" viewBox="0 0 545 230">
<style>
    svg { fill: none; stroke: rgb(211, 211, 211); font-size: 0.5rem; font-weight: 300;}

    .tl { font-size: 1.0em; fill: rgb(211, 211, 211); text-anchor: start; dominant-baseline:hanging;}
    .tr { font-size: 1.0em; fill: rgb(251, 133, 0); text-anchor: end; dominant-baseline:hanging;}

    .bl { font-size: 1.0em; fill: rgb(72, 149, 239); text-anchor: start;}
    .br { font-size: 1.0em; fill: rgb(87, 204, 153); text-anchor: end;}
    .cnt { font-size: 1.0em; fill: rgb(22, 26, 29); text-anchor: middle; dominant-baseline:middle;}

    text { font-family: Courier New; stroke: none}
    rect { stroke-width: 0.5;}

    rect.lw { fill: rgb(72, 149, 239); stroke: rgb(72, 149, 239)}
    text.lw { fill: rgb(250, 250, 250)}
    rect.rs { fill: rgb(251, 133, 0); stroke: rgb(251, 133, 0)}
    text.rs { fill: rgb(250, 250, 250);}
     
</style>

# Keycaps - row: 1
<rect rx="3" x="5" y="5" width="40" height="40"/>
<rect rx="3" x="50" y="5" width="40" height="40"/>
<rect rx="3" x="95" y="5" width="40" height="40"/>
<rect rx="3" x="140" y="5" width="40" height="40"/>
<rect rx="3" x="185" y="5" width="40" height="40"/>
<rect rx="3" x="230" y="5" width="40" height="40"/>
<rect rx="3" x="275" y="5" width="40" height="40"/>
<rect rx="3" x="320" y="5" width="40" height="40"/>
<rect rx="3" x="365" y="5" width="40" height="40"/>
<rect rx="3" x="410" y="5" width="40" height="40"/>
<rect rx="3" x="455" y="5" width="40" height="40"/>
<rect rx="3" x="500" y="5" width="40" height="40"/>

# Keycaps - row: 2
<rect rx="3" x="5" y="50" width="40" height="40"/>
<rect rx="3" x="50" y="50" width="40" height="40"/>
<rect rx="3" x="95" y="50" width="40" height="40"/>
<rect rx="3" x="140" y="50" width="40" height="40"/>
<rect rx="3" x="185" y="50" width="40" height="40"/>
<rect rx="3" x="230" y="50" width="40" height="40"/>
<rect rx="3" x="275" y="50" width="40" height="40"/>
<rect rx="3" x="320" y="50" width="40" height="40"/>
<rect rx="3" x="365" y="50" width="40" height="40"/>
<rect rx="3" x="410" y="50" width="40" height="40"/>
<rect rx="3" x="455" y="50" width="40" height="40"/>
<rect rx="3" x="500" y="50" width="40" height="40"/>

# Keycaps - row: 3
<rect rx="3" x="5" y="95" width="40" height="40"/>
<rect rx="3" x="50" y="95" width="40" height="40"/>
<rect rx="3" x="95" y="95" width="40" height="40"/>
<rect rx="3" x="140" y="95" width="40" height="40"/>
<rect rx="3" x="185" y="95" width="40" height="40"/>
<rect rx="3" x="230" y="95" width="40" height="40"/>
<rect rx="3" x="275" y="95" width="40" height="40"/>
<rect rx="3" x="320" y="95" width="40" height="40"/>
<rect rx="3" x="365" y="95" width="40" height="40"/>
<rect rx="3" x="410" y="95" width="40" height="40"/>
<rect rx="3" x="455" y="95" width="40" height="40"/>
<rect rx="3" x="500" y="95" width="40" height="40"/>

# Keycaps - row: 4
<rect rx="3" x="5" y="140" width="40" height="40"/>
<rect rx="3" x="50" y="140" width="40" height="40"/>
<rect rx="3" x="95" y="140" width="40" height="40"/>
<rect rx="3" x="140" y="140" width="40" height="40"/>
<rect rx="3" x="185" y="140" width="40" height="40"/>
<rect rx="3" x="230" y="140" width="40" height="40"/>
<rect rx="3" x="275" y="140" width="40" height="40"/>
<rect rx="3" x="320" y="140" width="40" height="40"/>
<rect rx="3" x="365" y="140" width="40" height="40"/>
<rect rx="3" x="410" y="140" width="40" height="40"/>
<rect rx="3" x="455" y="140" width="40" height="40"/>
<rect rx="3" x="500" y="140" width="40" height="40"/>

# Keycaps - row: 5
<rect rx="3" x="5" y="185" width="40" height="40"/>
<rect rx="3" x="50" y="185" width="40" height="40"/>
<rect rx="3" x="95" y="185" width="40" height="40"/>
<rect rx="3" x="140" y="185" width="40" height="40"/>
<rect rx="3" x="185" y="185" width="40" height="40" class="lw"/>
<rect rx="3" x="230" y="185" width="85" height="40"/>
<rect rx="3" x="320" y="185" width="40" height="40" class="rs"/>
<rect rx="3" x="365" y="185" width="40" height="40"/>
<rect rx="3" x="410" y="185" width="40" height="40"/>
<rect rx="3" x="455" y="185" width="40" height="40"/>
<rect rx="3" x="500" y="185" width="40" height="40"/>

# Center layer - row: 1
<text x="25.0" y="25.0" class="cnt r1 c1">`</text>
<text x="70.0" y="25.0" class="cnt r1 c2">1</text>
<text x="115.0" y="25.0" class="cnt r1 c3">2</text>
<text x="160.0" y="25.0" class="cnt r1 c4">3</text>
<text x="205.0" y="25.0" class="cnt r1 c5">4</text>
<text x="250.0" y="25.0" class="cnt r1 c6">5</text>
<text x="295.0" y="25.0" class="cnt r1 c7">6</text>
<text x="340.0" y="25.0" class="cnt r1 c8">7</text>
<text x="385.0" y="25.0" class="cnt r1 c9">8</text>
<text x="430.0" y="25.0" class="cnt r1 c10">9</text>
<text x="475.0" y="25.0" class="cnt r1 c11">0</text>
<text x="520.0" y="25.0" class="cnt r1 c12">DEL</text>

# Center layer - row: 2
<text x="25.0" y="70.0" class="cnt r2 c1">TAB</text>
<text x="70.0" y="70.0" class="cnt r2 c2">Q</text>
<text x="115.0" y="70.0" class="cnt r2 c3">W</text>
<text x="160.0" y="70.0" class="cnt r2 c4">E</text>
<text x="205.0" y="70.0" class="cnt r2 c5">R</text>
<text x="250.0" y="70.0" class="cnt r2 c6">T</text>
<text x="295.0" y="70.0" class="cnt r2 c7">Y</text>
<text x="340.0" y="70.0" class="cnt r2 c8">U</text>
<text x="385.0" y="70.0" class="cnt r2 c9">I</text>
<text x="430.0" y="70.0" class="cnt r2 c10">O</text>
<text x="475.0" y="70.0" class="cnt r2 c11">P</text>
<text x="520.0" y="70.0" class="cnt r2 c12">BKSP</text>

# Center layer - row: 3
<text x="25.0" y="115.0" class="cnt r3 c1">ESC</text>
<text x="70.0" y="115.0" class="cnt r3 c2">A</text>
<text x="115.0" y="115.0" class="cnt r3 c3">S</text>
<text x="160.0" y="115.0" class="cnt r3 c4">D</text>
<text x="205.0" y="115.0" class="cnt r3 c5">F</text>
<text x="250.0" y="115.0" class="cnt r3 c6">G</text>
<text x="295.0" y="115.0" class="cnt r3 c7">H</text>
<text x="340.0" y="115.0" class="cnt r3 c8">J</text>
<text x="385.0" y="115.0" class="cnt r3 c9">K</text>
<text x="430.0" y="115.0" class="cnt r3 c10">L</text>
<text x="475.0" y="115.0" class="cnt r3 c11">;</text>
<text x="520.0" y="115.0" class="cnt r3 c12">'</text>

# Center layer - row: 4
<text x="25.0" y="160.0" class="cnt r4 c1">SHIFT</text>
<text x="70.0" y="160.0" class="cnt r4 c2">Z</text>
<text x="115.0" y="160.0" class="cnt r4 c3">X</text>
<text x="160.0" y="160.0" class="cnt r4 c4">C</text>
<text x="205.0" y="160.0" class="cnt r4 c5">V</text>
<text x="250.0" y="160.0" class="cnt r4 c6">B</text>
<text x="295.0" y="160.0" class="cnt r4 c7">N</text>
<text x="340.0" y="160.0" class="cnt r4 c8">M</text>
<text x="385.0" y="160.0" class="cnt r4 c9">,</text>
<text x="430.0" y="160.0" class="cnt r4 c10">.</text>
<text x="475.0" y="160.0" class="cnt r4 c11">/</text>
<text x="520.0" y="160.0" class="cnt r4 c12">Enter</text>

# Center layer - row: 5
<text x="25.0" y="205.0" class="cnt r5 c1">CTRL</text>
<text x="70.0" y="205.0" class="cnt r5 c2">FN</text>
<text x="115.0" y="205.0" class="cnt r5 c3">OS</text>
<text x="160.0" y="205.0" class="cnt r5 c4">ALT</text>
<text x="205.0" y="205.0" class="cnt r5 c5 lw">Lower</text>
<text x="272.5" y="205.0" class="cnt r5 c6"></text>
<text x="340.0" y="205.0" class="cnt r5 c8 rs">Raise</text>
<text x="385.0" y="205.0" class="cnt r5 c9">Left</text>
<text x="430.0" y="205.0" class="cnt r5 c10">Down</text>
<text x="475.0" y="205.0" class="cnt r5 c11">Up</text>
<text x="520.0" y="205.0" class="cnt r5 c12">Right</text>

# Top right layer - row: 1
<text x="41" y="9" class="tr r1 c1">F1</text>
<text x="86" y="9" class="tr r1 c2">F2</text>
<text x="131" y="9" class="tr r1 c3">F3</text>
<text x="176" y="9" class="tr r1 c4">F4</text>
<text x="221" y="9" class="tr r1 c5">F5</text>
<text x="266" y="9" class="tr r1 c6">F6</text>
<text x="311" y="9" class="tr r1 c7">F7</text>
<text x="356" y="9" class="tr r1 c8">F8</text>
<text x="401" y="9" class="tr r1 c9">F9</text>
<text x="446" y="9" class="tr r1 c10">F10</text>
<text x="491" y="9" class="tr r1 c11">F11</text>
<text x="536" y="9" class="tr r1 c12">F12</text>

# Top right layer - row: 2
<text x="41" y="54" class="tr r2 c1">`</text>
<text x="86" y="54" class="tr r2 c2">1</text>
<text x="131" y="54" class="tr r2 c3">2</text>
<text x="176" y="54" class="tr r2 c4">3</text>
<text x="221" y="54" class="tr r2 c5">4</text>
<text x="266" y="54" class="tr r2 c6">5</text>
<text x="311" y="54" class="tr r2 c7">6</text>
<text x="356" y="54" class="tr r2 c8">7</text>
<text x="401" y="54" class="tr r2 c9">8</text>
<text x="446" y="54" class="tr r2 c10">9</text>
<text x="491" y="54" class="tr r2 c11">0</text>
<text x="536" y="54" class="tr r2 c12">BKSP</text>

# Top right layer - row: 3
<text x="41" y="99" class="tr r3 c1"></text>
<text x="86" y="99" class="tr r3 c2">PRTSC</text>
<text x="131" y="99" class="tr r3 c3">SCRLK</text>
<text x="176" y="99" class="tr r3 c4">Pause</text>
<text x="221" y="99" class="tr r3 c5"></text>
<text x="266" y="99" class="tr r3 c6"></text>
<text x="311" y="99" class="tr r3 c7"></text>
<text x="356" y="99" class="tr r3 c8">-</text>
<text x="401" y="99" class="tr r3 c9">=</text>
<text x="446" y="99" class="tr r3 c10">[</text>
<text x="491" y="99" class="tr r3 c11">]</text>
<text x="536" y="99" class="tr r3 c12">\</text>

# Top right layer - row: 4
<text x="41" y="144" class="tr r4 c1"></text>
<text x="86" y="144" class="tr r4 c2">Insert</text>
<text x="131" y="144" class="tr r4 c3">Home</text>
<text x="176" y="144" class="tr r4 c4">PGUP</text>
<text x="221" y="144" class="tr r4 c5"></text>
<text x="266" y="144" class="tr r4 c6"></text>
<text x="311" y="144" class="tr r4 c7"></text>
<text x="356" y="144" class="tr r4 c8"></text>
<text x="401" y="144" class="tr r4 c9">,</text>
<text x="446" y="144" class="tr r4 c10">.</text>
<text x="491" y="144" class="tr r4 c11"></text>
<text x="536" y="144" class="tr r4 c12">Enter</text>

# Top right layer - row: 5
<text x="41" y="189" class="tr r5 c1"></text>
<text x="86" y="189" class="tr r5 c2">DEL</text>
<text x="131" y="189" class="tr r5 c3">End</text>
<text x="176" y="189" class="tr r5 c4">PGDN</text>
<text x="221" y="189" class="tr r5 c5"></text>
<text x="311" y="189" class="tr r5 c6"></text>
<text x="356" y="189" class="tr r5 c8"></text>
<text x="401" y="189" class="tr r5 c9">Next</text>
<text x="446" y="189" class="tr r5 c10">VOL-</text>
<text x="491" y="189" class="tr r5 c11">VOL+</text>
<text x="536" y="189" class="tr r5 c12">Play</text>

# Bottom right layer - row: 1
<text x="41" y="41" class="br r1 c1"></text>
<text x="86" y="41" class="br r1 c2"></text>
<text x="131" y="41" class="br r1 c3"></text>
<text x="176" y="41" class="br r1 c4"></text>
<text x="221" y="41" class="br r1 c5"></text>
<text x="266" y="41" class="br r1 c6"></text>
<text x="311" y="41" class="br r1 c7"></text>
<text x="356" y="41" class="br r1 c8"></text>
<text x="401" y="41" class="br r1 c9"></text>
<text x="446" y="41" class="br r1 c10"></text>
<text x="491" y="41" class="br r1 c11"></text>
<text x="536" y="41" class="br r1 c12"></text>

# Bottom right layer - row: 2
<text x="41" y="86" class="br r2 c1"></text>
<text x="86" y="86" class="br r2 c2"></text>
<text x="131" y="86" class="br r2 c3"></text>
<text x="176" y="86" class="br r2 c4"></text>
<text x="221" y="86" class="br r2 c5"></text>
<text x="266" y="86" class="br r2 c6"></text>
<text x="311" y="86" class="br r2 c7"></text>
<text x="356" y="86" class="br r2 c8"></text>
<text x="401" y="86" class="br r2 c9"></text>
<text x="446" y="86" class="br r2 c10"></text>
<text x="491" y="86" class="br r2 c11"></text>
<text x="536" y="86" class="br r2 c12"></text>

# Bottom right layer - row: 3
<text x="41" y="131" class="br r3 c1"></text>
<text x="86" y="131" class="br r3 c2"></text>
<text x="131" y="131" class="br r3 c3"></text>
<text x="176" y="131" class="br r3 c4"></text>
<text x="221" y="131" class="br r3 c5"></text>
<text x="266" y="131" class="br r3 c6"></text>
<text x="311" y="131" class="br r3 c7"></text>
<text x="356" y="131" class="br r3 c8"></text>
<text x="401" y="131" class="br r3 c9"></text>
<text x="446" y="131" class="br r3 c10"></text>
<text x="491" y="131" class="br r3 c11"></text>
<text x="536" y="131" class="br r3 c12"></text>

# Bottom right layer - row: 4
<text x="41" y="176" class="br r4 c1"></text>
<text x="86" y="176" class="br r4 c2"></text>
<text x="131" y="176" class="br r4 c3"></text>
<text x="176" y="176" class="br r4 c4"></text>
<text x="221" y="176" class="br r4 c5"></text>
<text x="266" y="176" class="br r4 c6"></text>
<text x="311" y="176" class="br r4 c7"></text>
<text x="356" y="176" class="br r4 c8"></text>
<text x="401" y="176" class="br r4 c9"></text>
<text x="446" y="176" class="br r4 c10"></text>
<text x="491" y="176" class="br r4 c11"></text>
<text x="536" y="176" class="br r4 c12"></text>

# Bottom right layer - row: 5
<text x="41" y="221" class="br r5 c1"></text>
<text x="86" y="221" class="br r5 c2"></text>
<text x="131" y="221" class="br r5 c3"></text>
<text x="176" y="221" class="br r5 c4"></text>
<text x="221" y="221" class="br r5 c5"></text>
<text x="311" y="221" class="br r5 c6"></text>
<text x="356" y="221" class="br r5 c8"></text>
<text x="401" y="221" class="br r5 c9"></text>
<text x="446" y="221" class="br r5 c10"></text>
<text x="491" y="221" class="br r5 c11"></text>
<text x="536" y="221" class="br r5 c12"></text>

# Bottom left layer - row: 1
<text x="9" y="41" class="bl r1 c1">F1</text>
<text x="54" y="41" class="bl r1 c2">F2</text>
<text x="99" y="41" class="bl r1 c3">F3</text>
<text x="144" y="41" class="bl r1 c4">F4</text>
<text x="189" y="41" class="bl r1 c5">F5</text>
<text x="234" y="41" class="bl r1 c6">F5</text>
<text x="279" y="41" class="bl r1 c7">F7</text>
<text x="324" y="41" class="bl r1 c8">F8</text>
<text x="369" y="41" class="bl r1 c9">F9</text>
<text x="414" y="41" class="bl r1 c10">F10</text>
<text x="459" y="41" class="bl r1 c11">F11</text>
<text x="504" y="41" class="bl r1 c12">F12</text>

# Bottom left layer - row: 2
<text x="9" y="86" class="bl r2 c1">~</text>
<text x="54" y="86" class="bl r2 c2">!</text>
<text x="99" y="86" class="bl r2 c3">@</text>
<text x="144" y="86" class="bl r2 c4">#</text>
<text x="189" y="86" class="bl r2 c5">$</text>
<text x="234" y="86" class="bl r2 c6">%</text>
<text x="279" y="86" class="bl r2 c7">^</text>
<text x="324" y="86" class="bl r2 c8">&amp;</text>
<text x="369" y="86" class="bl r2 c9">*</text>
<text x="414" y="86" class="bl r2 c10">(</text>
<text x="459" y="86" class="bl r2 c11">)</text>
<text x="504" y="86" class="bl r2 c12">BKSP</text>

# Bottom left layer - row: 3
<text x="9" y="131" class="bl r3 c1"></text>
<text x="54" y="131" class="bl r3 c2"></text>
<text x="99" y="131" class="bl r3 c3">M BTN1</text>
<text x="144" y="131" class="bl r3 c4">M Up</text>
<text x="189" y="131" class="bl r3 c5">M BTN2</text>
<text x="234" y="131" class="bl r3 c6">M BTN3</text>
<text x="279" y="131" class="bl r3 c7"></text>
<text x="324" y="131" class="bl r3 c8">_</text>
<text x="369" y="131" class="bl r3 c9">+</text>
<text x="414" y="131" class="bl r3 c10">{</text>
<text x="459" y="131" class="bl r3 c11">}</text>
<text x="504" y="131" class="bl r3 c12">|</text>

# Bottom left layer - row: 4
<text x="9" y="176" class="bl r4 c1"></text>
<text x="54" y="176" class="bl r4 c2"></text>
<text x="99" y="176" class="bl r4 c3">M Left</text>
<text x="144" y="176" class="bl r4 c4">M Down</text>
<text x="189" y="176" class="bl r4 c5">M Right</text>
<text x="234" y="176" class="bl r4 c6"></text>
<text x="279" y="176" class="bl r4 c7"></text>
<text x="324" y="176" class="bl r4 c8"></text>
<text x="369" y="176" class="bl r4 c9">,</text>
<text x="414" y="176" class="bl r4 c10">.</text>
<text x="459" y="176" class="bl r4 c11"></text>
<text x="504" y="176" class="bl r4 c12">Enter</text>

# Bottom left layer - row: 5
<text x="9" y="221" class="bl r5 c1"></text>
<text x="54" y="221" class="bl r5 c2"></text>
<text x="99" y="221" class="bl r5 c3"></text>
<text x="144" y="221" class="bl r5 c4"></text>
<text x="189" y="221" class="bl r5 c5"></text>
<text x="234" y="221" class="bl r5 c6"></text>
<text x="324" y="221" class="bl r5 c8"></text>
<text x="369" y="221" class="bl r5 c9">Next</text>
<text x="414" y="221" class="bl r5 c10">VOL-</text>
<text x="459" y="221" class="bl r5 c11">VOL+</text>
<text x="504" y="221" class="bl r5 c12">Play</text>

# Top left layer - row: 1
<text x="9" y="9" class="tl r1 c1"></text>
<text x="54" y="9" class="tl r1 c2"></text>
<text x="99" y="9" class="tl r1 c3"></text>
<text x="144" y="9" class="tl r1 c4"></text>
<text x="189" y="9" class="tl r1 c5"></text>
<text x="234" y="9" class="tl r1 c6"></text>
<text x="279" y="9" class="tl r1 c7"></text>
<text x="324" y="9" class="tl r1 c8"></text>
<text x="369" y="9" class="tl r1 c9"></text>
<text x="414" y="9" class="tl r1 c10"></text>
<text x="459" y="9" class="tl r1 c11"></text>
<text x="504" y="9" class="tl r1 c12"></text>

# Top left layer - row: 2
<text x="9" y="54" class="tl r2 c1"></text>
<text x="54" y="54" class="tl r2 c2"></text>
<text x="99" y="54" class="tl r2 c3"></text>
<text x="144" y="54" class="tl r2 c4"></text>
<text x="189" y="54" class="tl r2 c5"></text>
<text x="234" y="54" class="tl r2 c6"></text>
<text x="279" y="54" class="tl r2 c7"></text>
<text x="324" y="54" class="tl r2 c8"></text>
<text x="369" y="54" class="tl r2 c9"></text>
<text x="414" y="54" class="tl r2 c10"></text>
<text x="459" y="54" class="tl r2 c11"></text>
<text x="504" y="54" class="tl r2 c12"></text>

# Top left layer - row: 3
<text x="9" y="99" class="tl r3 c1"></text>
<text x="54" y="99" class="tl r3 c2"></text>
<text x="99" y="99" class="tl r3 c3"></text>
<text x="144" y="99" class="tl r3 c4"></text>
<text x="189" y="99" class="tl r3 c5"></text>
<text x="234" y="99" class="tl r3 c6"></text>
<text x="279" y="99" class="tl r3 c7"></text>
<text x="324" y="99" class="tl r3 c8"></text>
<text x="369" y="99" class="tl r3 c9"></text>
<text x="414" y="99" class="tl r3 c10"></text>
<text x="459" y="99" class="tl r3 c11"></text>
<text x="504" y="99" class="tl r3 c12"></text>

# Top left layer - row: 4
<text x="9" y="144" class="tl r4 c1"></text>
<text x="54" y="144" class="tl r4 c2"></text>
<text x="99" y="144" class="tl r4 c3"></text>
<text x="144" y="144" class="tl r4 c4"></text>
<text x="189" y="144" class="tl r4 c5"></text>
<text x="234" y="144" class="tl r4 c6"></text>
<text x="279" y="144" class="tl r4 c7"></text>
<text x="324" y="144" class="tl r4 c8"></text>
<text x="369" y="144" class="tl r4 c9"></text>
<text x="414" y="144" class="tl r4 c10"></text>
<text x="459" y="144" class="tl r4 c11"></text>
<text x="504" y="144" class="tl r4 c12"></text>

# Top left layer - row: 5
<text x="9" y="189" class="tl r5 c1"></text>
<text x="54" y="189" class="tl r5 c2"></text>
<text x="99" y="189" class="tl r5 c3"></text>
<text x="144" y="189" class="tl r5 c4"></text>
<text x="189" y="189" class="tl r5 c5"></text>
<text x="234" y="189" class="tl r5 c6"></text>
<text x="324" y="189" class="tl r5 c8"></text>
<text x="369" y="189" class="tl r5 c9"></text>
<text x="414" y="189" class="tl r5 c10"></text>
<text x="459" y="189" class="tl r5 c11"></text>
<text x="504" y="189" class="tl r5 c12"></text>

</svg>
